<?xml version="1.0" encoding="UTF-8"?>
<svg xmlns="http://www.w3.org/2000/svg" viewBox="0 0 24 24" width="24px" height="24px">
<g id="surface3329725">
<path style=" stroke:none;fill-rule:nonzero;fill:rgb(14.901961%,87.843138%,49.803922%);fill-opacity:1;" d="M 12 2.398438 C 6.699219 2.398438 2.398438 6.699219 2.398438 12 C 2.398438 17.300781 6.699219 21.601562 12 21.601562 C 17.300781 21.601562 21.601562 17.300781 21.601562 12 C 21.601562 6.699219 17.300781 2.398438 12 2.398438 Z M 17.367188 10.164062 L 11.316406 16.214844 C 11.167969 16.363281 10.964844 16.449219 10.753906 16.449219 C 10.539062 16.449219 10.335938 16.363281 10.1875 16.214844 L 7.425781 13.453125 C 7.109375 13.136719 7.109375 12.632812 7.425781 12.320312 C 7.738281 12.007812 8.242188 12.007812 8.554688 12.320312 L 10.753906 14.515625 L 16.234375 9.035156 C 16.546875 8.722656 17.054688 8.722656 17.367188 9.035156 C 17.679688 9.347656 17.679688 9.851562 17.367188 10.164062 Z M 17.367188 10.164062 "/>
</g>
</svg>
